<svg width="167" height="21" viewBox="0 0 167 21" fill="none" xmlns="http://www.w3.org/2000/svg">
<path d="M0.05 15C0.148 15 0.246 14.902 0.344 14.706C0.442 14.51 0.491 14.188 0.491 13.74V3.66C0.491 3.212 0.442 2.897 0.344 2.715C0.246 2.519 0.148 2.414 0.05 2.4H12.314V3.03L12.734 5.466C12.384 5.312 11.768 5.151 10.886 4.983C10.004 4.801 8.94 4.71 7.694 4.71H4.586C4.166 4.71 3.914 4.745 3.83 4.815C3.76 4.871 3.725 5.046 3.725 5.34V6.894C3.725 7.202 3.76 7.384 3.83 7.44C3.914 7.496 4.159 7.524 4.565 7.524H7.589C8.401 7.524 9.052 7.482 9.542 7.398C10.046 7.3 10.375 7.202 10.529 7.104C10.473 7.37 10.41 7.678 10.34 8.028C10.27 8.378 10.214 8.714 10.172 9.036C10.13 9.358 10.109 9.624 10.109 9.834H4.565C4.159 9.834 3.914 9.862 3.83 9.918C3.76 9.96 3.725 10.142 3.725 10.464V12.018C3.725 12.34 3.76 12.529 3.83 12.585C3.9 12.641 4.145 12.669 4.565 12.669H10.235C11.047 12.669 11.698 12.578 12.188 12.396C12.692 12.2 13.021 12.011 13.175 11.829L12.755 14.349V15H0.05ZM14.5256 15C14.6236 15 14.7146 14.902 14.7986 14.706C14.8966 14.51 14.9456 14.188 14.9456 13.74V6.642C14.9456 6.194 14.8966 5.879 14.7986 5.697C14.7146 5.501 14.6236 5.396 14.5256 5.382C15.1416 5.382 15.7716 5.34 16.4156 5.256C17.0596 5.158 17.5636 5.06 17.9276 4.962V6.243L17.8856 6.516L17.9276 6.558C17.9696 6.46 18.1026 6.285 18.3266 6.033C18.5506 5.781 18.8726 5.543 19.2926 5.319C19.7126 5.081 20.2306 4.962 20.8466 4.962C22.1486 4.962 23.1426 5.333 23.8286 6.075C24.5286 6.817 24.8786 7.979 24.8786 9.561V13.74C24.8786 14.188 24.9206 14.51 25.0046 14.706C25.1026 14.902 25.2006 15 25.2986 15H21.4766C21.5746 15 21.6656 14.902 21.7496 14.706C21.8476 14.51 21.8966 14.188 21.8966 13.74V9.624C21.8966 8.966 21.8266 8.455 21.6866 8.091C21.5466 7.713 21.3506 7.447 21.0986 7.293C20.8606 7.139 20.5806 7.062 20.2586 7.062C19.8666 7.062 19.4886 7.16 19.1246 7.356C18.7746 7.538 18.4876 7.832 18.2636 8.238C18.0396 8.63 17.9276 9.155 17.9276 9.813V13.74C17.9276 14.188 17.9696 14.51 18.0536 14.706C18.1516 14.902 18.2496 15 18.3476 15H14.5256ZM28.4066 15C28.5046 14.986 28.5956 14.881 28.6796 14.685C28.7776 14.489 28.8266 14.174 28.8266 13.74V9.813C28.8266 9.253 28.7706 8.77 28.6586 8.364C28.5606 7.944 28.3926 7.622 28.1546 7.398C27.9166 7.174 27.5946 7.062 27.1886 7.062C26.5026 7.062 25.9426 7.307 25.5086 7.797C25.0886 8.287 24.8786 9.029 24.8786 10.023H23.3456C23.3456 9.351 23.4506 8.714 23.6606 8.112C23.8706 7.496 24.1716 6.957 24.5636 6.495C24.9556 6.019 25.4246 5.648 25.9706 5.382C26.5166 5.102 27.1186 4.962 27.7766 4.962C28.6166 4.962 29.3376 5.116 29.9396 5.424C30.5416 5.718 31.0036 6.215 31.3256 6.915C31.6476 7.615 31.8086 8.567 31.8086 9.771V13.74C31.8086 14.174 31.8506 14.489 31.9346 14.685C32.0326 14.881 32.1306 14.986 32.2286 15H28.4066ZM33.9465 19.662C34.0445 19.662 34.1355 19.564 34.2195 19.368C34.3175 19.172 34.3665 18.85 34.3665 18.402V6.432C34.3665 5.984 34.3175 5.669 34.2195 5.487C34.1355 5.291 34.0445 5.186 33.9465 5.172H37.3485V5.34L37.3065 5.739L37.3485 5.76C37.4885 5.634 37.6915 5.515 37.9575 5.403C38.2375 5.277 38.5525 5.172 38.9025 5.088C39.2665 5.004 39.6305 4.962 39.9945 4.962C41.2965 4.962 42.3045 5.193 43.0185 5.655C43.7465 6.103 44.2575 6.712 44.5515 7.482C44.8455 8.252 44.9925 9.127 44.9925 10.107C44.9925 11.073 44.8455 11.941 44.5515 12.711C44.2715 13.481 43.7675 14.09 43.0395 14.538C42.3255 14.986 41.3105 15.21 39.9945 15.21C39.4485 15.21 38.9375 15.14 38.4615 15C37.9995 14.874 37.6285 14.685 37.3485 14.433L37.3065 14.454L37.3485 14.874V18.402C37.3485 18.85 37.3905 19.172 37.4745 19.368C37.5725 19.564 37.6705 19.662 37.7685 19.662H33.9465ZM39.5745 13.089C40.1625 13.089 40.6315 13.005 40.9815 12.837C41.3455 12.655 41.6045 12.347 41.7585 11.913C41.9265 11.479 42.0105 10.877 42.0105 10.107C42.0105 9.337 41.9265 8.735 41.7585 8.301C41.6045 7.853 41.3455 7.538 40.9815 7.356C40.6315 7.16 40.1625 7.062 39.5745 7.062C39.1125 7.062 38.7135 7.174 38.3775 7.398C38.0415 7.608 37.7825 7.937 37.6005 8.385C37.4325 8.833 37.3485 9.414 37.3485 10.128C37.3485 10.856 37.4395 11.437 37.6215 11.871C37.8035 12.305 38.0555 12.62 38.3775 12.816C38.7135 12.998 39.1125 13.089 39.5745 13.089ZM46.6643 15C46.7623 15 46.8603 14.902 46.9583 14.706C47.0563 14.51 47.1053 14.188 47.1053 13.74V1.77C47.1053 1.322 47.0563 0.999999 46.9583 0.803999C46.8743 0.607999 46.7833 0.509999 46.6853 0.509999C47.6093 0.509999 48.3583 0.467999 48.9323 0.383999C49.5203 0.286 49.9053 0.188 50.0873 0.0899992V13.74C50.0873 14.188 50.1293 14.51 50.2133 14.706C50.3113 14.902 50.4093 15 50.5073 15H46.6643ZM57.6095 15.21C56.2095 15.21 55.1105 14.986 54.3125 14.538C53.5285 14.09 52.9755 13.481 52.6535 12.711C52.3455 11.941 52.1915 11.073 52.1915 10.107C52.1915 9.127 52.3525 8.252 52.6745 7.482C53.0105 6.712 53.5705 6.103 54.3545 5.655C55.1385 5.193 56.2235 4.962 57.6095 4.962C58.9955 4.962 60.0805 5.193 60.8645 5.655C61.6485 6.103 62.2015 6.712 62.5235 7.482C62.8595 8.252 63.0275 9.127 63.0275 10.107C63.0275 11.073 62.8665 11.941 62.5445 12.711C62.2365 13.481 61.6905 14.09 60.9065 14.538C60.1225 14.986 59.0235 15.21 57.6095 15.21ZM57.6095 13.089C58.1975 13.089 58.6665 13.005 59.0165 12.837C59.3805 12.655 59.6395 12.347 59.7935 11.913C59.9615 11.479 60.0455 10.877 60.0455 10.107C60.0455 9.337 59.9615 8.735 59.7935 8.301C59.6395 7.853 59.3805 7.538 59.0165 7.356C58.6665 7.16 58.1975 7.062 57.6095 7.062C57.0215 7.062 56.5455 7.16 56.1815 7.356C55.8315 7.552 55.5725 7.874 55.4045 8.322C55.2505 8.77 55.1735 9.372 55.1735 10.128C55.1735 10.87 55.2505 11.458 55.4045 11.892C55.5725 12.326 55.8315 12.634 56.1815 12.816C56.5455 12.998 57.0215 13.089 57.6095 13.089ZM64.6936 20.124C63.8536 20.124 63.1886 20.04 62.6986 19.872C62.2086 19.704 61.8936 19.543 61.7536 19.389L62.1736 16.134V15.504C62.3416 15.868 62.5726 16.246 62.8666 16.638C63.1466 17.03 63.4756 17.359 63.8536 17.625C64.2316 17.891 64.6236 18.024 65.0296 18.024C65.3096 18.024 65.5616 17.961 65.7856 17.835C66.0236 17.723 66.2406 17.541 66.4366 17.289C66.6466 17.037 66.8496 16.722 67.0456 16.344C67.3256 15.784 67.5006 15.399 67.5706 15.189C67.4866 15.077 67.3466 14.818 67.1506 14.412C66.9686 14.006 66.7446 13.516 66.4786 12.942C66.2266 12.354 65.9536 11.738 65.6596 11.094C65.3796 10.436 65.1066 9.799 64.8406 9.183C64.5886 8.567 64.3576 8.021 64.1476 7.545C63.9516 7.069 63.8046 6.719 63.7066 6.495C63.5106 6.019 63.3146 5.683 63.1186 5.487C62.9086 5.277 62.7476 5.172 62.6356 5.172H66.9406C66.8706 5.172 66.8216 5.27 66.7936 5.466C66.7656 5.662 66.8146 6.005 66.9406 6.495C67.0106 6.761 67.1226 7.139 67.2766 7.629C67.4306 8.105 67.6056 8.63 67.8016 9.204C68.0116 9.778 68.2216 10.359 68.4316 10.947C68.6556 11.535 68.8586 12.074 69.0406 12.564H69.0616C69.2576 12.046 69.4606 11.486 69.6706 10.884C69.8946 10.268 70.1116 9.666 70.3216 9.078C70.5456 8.49 70.7346 7.965 70.8886 7.503C71.0566 7.041 71.1826 6.691 71.2666 6.453C71.4206 5.977 71.4836 5.648 71.4556 5.466C71.4276 5.27 71.3646 5.172 71.2666 5.172H75.4456C75.3336 5.172 75.1796 5.27 74.9836 5.466C74.8016 5.648 74.6266 5.97 74.4586 6.432C74.3606 6.684 74.1996 7.097 73.9756 7.671C73.7516 8.245 73.4856 8.903 73.1776 9.645C72.8696 10.387 72.5476 11.15 72.2116 11.934C71.8756 12.718 71.5466 13.46 71.2246 14.16C70.9166 14.846 70.6436 15.413 70.4056 15.861C69.9296 16.785 69.4326 17.562 68.9146 18.192C68.3966 18.822 67.8016 19.298 67.1296 19.62C66.4576 19.956 65.6456 20.124 64.6936 20.124ZM80.9338 15.21C79.8278 15.21 78.9038 15.098 78.1618 14.874C77.4338 14.636 76.8528 14.3 76.4188 13.866C75.9848 13.418 75.6768 12.879 75.4948 12.249C75.3128 11.619 75.2218 10.905 75.2218 10.107C75.2218 8.525 75.6628 7.272 76.5448 6.348C77.4268 5.424 78.7778 4.962 80.5978 4.962C81.6618 4.962 82.5228 5.109 83.1808 5.403C83.8528 5.697 84.3638 6.089 84.7138 6.579C85.0638 7.069 85.3018 7.615 85.4278 8.217C85.5678 8.805 85.6378 9.4 85.6378 10.002V10.989C85.6378 10.947 85.4418 10.905 85.0498 10.863C84.6718 10.807 84.0278 10.779 83.1178 10.779H78.2458C78.2458 11.549 78.4768 12.13 78.9388 12.522C79.4148 12.9 80.1848 13.089 81.2488 13.089C82.1448 13.089 82.9428 12.984 83.6428 12.774C84.3568 12.55 84.8748 12.34 85.1968 12.144V12.774L85.4068 14.37C85.1408 14.552 84.6298 14.741 83.8738 14.937C83.1178 15.119 82.1378 15.21 80.9338 15.21ZM79.0228 8.973H82.6558C82.6558 8.665 82.5858 8.364 82.4458 8.07C82.3198 7.776 82.1098 7.538 81.8158 7.356C81.5218 7.16 81.1158 7.062 80.5978 7.062C80.0798 7.062 79.6598 7.139 79.3378 7.293C79.0298 7.447 78.7988 7.636 78.6448 7.86C78.5048 8.084 78.4348 8.315 78.4348 8.553C78.4348 8.693 78.4768 8.798 78.5608 8.868C78.6448 8.938 78.7988 8.973 79.0228 8.973ZM92.8283 15.21C91.7223 15.21 90.7983 15.098 90.0563 14.874C89.3283 14.636 88.7473 14.3 88.3133 13.866C87.8793 13.418 87.5713 12.879 87.3893 12.249C87.2073 11.619 87.1163 10.905 87.1163 10.107C87.1163 8.525 87.5573 7.272 88.4393 6.348C89.3213 5.424 90.6723 4.962 92.4923 4.962C93.5563 4.962 94.4173 5.109 95.0753 5.403C95.7473 5.697 96.2583 6.089 96.6083 6.579C96.9583 7.069 97.1963 7.615 97.3223 8.217C97.4623 8.805 97.5323 9.4 97.5323 10.002V10.989C97.5323 10.947 97.3363 10.905 96.9443 10.863C96.5663 10.807 95.9223 10.779 95.0123 10.779H90.1403C90.1403 11.549 90.3713 12.13 90.8333 12.522C91.3093 12.9 92.0793 13.089 93.1433 13.089C94.0393 13.089 94.8373 12.984 95.5373 12.774C96.2513 12.55 96.7693 12.34 97.0913 12.144V12.774L97.3013 14.37C97.0353 14.552 96.5243 14.741 95.7683 14.937C95.0123 15.119 94.0323 15.21 92.8283 15.21ZM90.9173 8.973H94.5503C94.5503 8.665 94.4803 8.364 94.3403 8.07C94.2143 7.776 94.0043 7.538 93.7103 7.356C93.4163 7.16 93.0103 7.062 92.4923 7.062C91.9743 7.062 91.5543 7.139 91.2323 7.293C90.9243 7.447 90.6933 7.636 90.5393 7.86C90.3993 8.084 90.3293 8.315 90.3293 8.553C90.3293 8.693 90.3713 8.798 90.4553 8.868C90.5393 8.938 90.6933 8.973 90.9173 8.973ZM104.497 15C104.595 15 104.686 14.902 104.77 14.706C104.868 14.51 104.917 14.188 104.917 13.74V3.66C104.917 3.212 104.868 2.897 104.77 2.715C104.672 2.519 104.574 2.414 104.476 2.4H111.364C112.554 2.4 113.513 2.575 114.241 2.925C114.983 3.261 115.529 3.751 115.879 4.395C116.229 5.025 116.404 5.781 116.404 6.663C116.404 7.559 116.229 8.336 115.879 8.994C115.529 9.638 114.983 10.135 114.241 10.485C113.513 10.821 112.554 10.989 111.364 10.989H108.151V13.74C108.151 14.188 108.2 14.51 108.298 14.706C108.396 14.902 108.494 15 108.592 15H104.497ZM109.012 8.679H110.062C110.888 8.679 111.525 8.609 111.973 8.469C112.435 8.329 112.757 8.112 112.939 7.818C113.121 7.524 113.212 7.139 113.212 6.663C113.212 6.201 113.114 5.83 112.918 5.55C112.736 5.27 112.428 5.074 111.994 4.962C111.574 4.836 111 4.773 110.272 4.773H109.012C108.578 4.773 108.326 4.801 108.256 4.857C108.186 4.899 108.151 5.06 108.151 5.34V8.091C108.151 8.371 108.186 8.539 108.256 8.595C108.326 8.651 108.578 8.679 109.012 8.679ZM123.194 15.21C121.794 15.21 120.695 14.986 119.897 14.538C119.113 14.09 118.56 13.481 118.238 12.711C117.93 11.941 117.776 11.073 117.776 10.107C117.776 9.127 117.937 8.252 118.259 7.482C118.595 6.712 119.155 6.103 119.939 5.655C120.723 5.193 121.808 4.962 123.194 4.962C124.58 4.962 125.665 5.193 126.449 5.655C127.233 6.103 127.786 6.712 128.108 7.482C128.444 8.252 128.612 9.127 128.612 10.107C128.612 11.073 128.451 11.941 128.129 12.711C127.821 13.481 127.275 14.09 126.491 14.538C125.707 14.986 124.608 15.21 123.194 15.21ZM123.194 13.089C123.782 13.089 124.251 13.005 124.601 12.837C124.965 12.655 125.224 12.347 125.378 11.913C125.546 11.479 125.63 10.877 125.63 10.107C125.63 9.337 125.546 8.735 125.378 8.301C125.224 7.853 124.965 7.538 124.601 7.356C124.251 7.16 123.782 7.062 123.194 7.062C122.606 7.062 122.13 7.16 121.766 7.356C121.416 7.552 121.157 7.874 120.989 8.322C120.835 8.77 120.758 9.372 120.758 10.128C120.758 10.87 120.835 11.458 120.989 11.892C121.157 12.326 121.416 12.634 121.766 12.816C122.13 12.998 122.606 13.089 123.194 13.089ZM130.169 15C130.267 15 130.358 14.902 130.442 14.706C130.54 14.51 130.589 14.188 130.589 13.74V6.642C130.589 6.194 130.54 5.879 130.442 5.697C130.358 5.501 130.267 5.396 130.169 5.382C130.785 5.382 131.415 5.34 132.059 5.256C132.703 5.158 133.207 5.06 133.571 4.962V5.802L133.529 6.159L133.571 6.201C133.669 6.047 133.823 5.879 134.033 5.697C134.257 5.501 134.537 5.333 134.873 5.193C135.223 5.039 135.629 4.962 136.091 4.962C136.777 4.962 137.386 5.06 137.918 5.256C138.45 5.438 138.828 5.627 139.052 5.823L138.422 8.637V9.267C138.212 8.973 137.925 8.672 137.561 8.364C137.211 8.056 136.819 7.797 136.385 7.587C135.965 7.377 135.531 7.272 135.083 7.272C134.579 7.272 134.201 7.454 133.949 7.818C133.697 8.182 133.571 8.756 133.571 9.54V13.74C133.571 14.188 133.613 14.51 133.697 14.706C133.795 14.902 133.893 15 133.991 15H130.169ZM144.54 15.21C143.574 15.21 142.874 15.007 142.44 14.601C142.006 14.181 141.789 13.502 141.789 12.564V7.272H139.899V5.172C140.543 5.172 141.047 5.095 141.411 4.941C141.775 4.773 142.034 4.486 142.188 4.08C142.342 3.674 142.419 3.107 142.419 2.379H144.771V5.172H148.362C148.264 5.452 148.166 5.802 148.068 6.222C147.984 6.628 147.942 6.978 147.942 7.272H144.771V11.409C144.771 12.053 144.82 12.494 144.918 12.732C145.016 12.97 145.247 13.089 145.611 13.089C145.849 13.089 146.108 13.005 146.388 12.837C146.682 12.669 146.962 12.466 147.228 12.228C147.508 11.976 147.739 11.738 147.921 11.514V12.165L148.131 14.202C147.963 14.342 147.711 14.496 147.375 14.664C147.039 14.818 146.626 14.944 146.136 15.042C145.66 15.154 145.128 15.21 144.54 15.21ZM153.54 15.21C152.28 15.21 151.272 14.965 150.516 14.475C149.774 13.971 149.403 13.166 149.403 12.06C149.403 11.29 149.599 10.667 149.991 10.191C150.383 9.715 150.915 9.365 151.587 9.141C152.273 8.903 153.05 8.784 153.918 8.784C154.562 8.784 155.108 8.84 155.556 8.952C156.018 9.064 156.389 9.183 156.669 9.309C156.949 9.435 157.131 9.526 157.215 9.582C157.215 8.994 157.152 8.518 157.026 8.154C156.9 7.776 156.669 7.503 156.333 7.335C156.011 7.153 155.556 7.062 154.968 7.062C154.114 7.062 153.358 7.146 152.7 7.314C152.042 7.482 151.503 7.678 151.083 7.902C150.677 8.126 150.397 8.315 150.243 8.469V7.839L150.033 5.781C150.131 5.725 150.39 5.634 150.81 5.508C151.23 5.382 151.804 5.263 152.532 5.151C153.26 5.025 154.128 4.962 155.136 4.962C156.522 4.962 157.579 5.165 158.307 5.571C159.035 5.963 159.532 6.53 159.798 7.272C160.078 8.014 160.218 8.91 160.218 9.96V13.74C160.218 14.132 160.26 14.419 160.344 14.601C160.442 14.769 160.54 14.902 160.638 15H157.236V14.559L157.278 14.16L157.236 14.118C157.124 14.244 156.963 14.37 156.753 14.496C156.543 14.622 156.284 14.741 155.976 14.853C155.668 14.951 155.311 15.035 154.905 15.105C154.499 15.175 154.044 15.21 153.54 15.21ZM154.527 13.089C155.115 13.089 155.605 13.047 155.997 12.963C156.403 12.865 156.711 12.739 156.921 12.585C157.131 12.417 157.236 12.221 157.236 11.997C157.236 11.675 156.991 11.409 156.501 11.199C156.025 10.989 155.374 10.884 154.548 10.884C153.75 10.884 153.183 10.996 152.847 11.22C152.525 11.444 152.364 11.724 152.364 12.06C152.364 12.48 152.553 12.76 152.931 12.9C153.309 13.026 153.841 13.089 154.527 13.089ZM162.492 15C162.59 15 162.688 14.902 162.786 14.706C162.884 14.51 162.933 14.188 162.933 13.74V1.77C162.933 1.322 162.884 0.999999 162.786 0.803999C162.702 0.607999 162.611 0.509999 162.513 0.509999C163.437 0.509999 164.186 0.467999 164.76 0.383999C165.348 0.286 165.733 0.188 165.915 0.0899992V13.74C165.915 14.188 165.957 14.51 166.041 14.706C166.139 14.902 166.237 15 166.335 15H162.492Z" fill="#04121E"/>
</svg>
