<svg width="152" height="44" viewBox="0 0 152 44" fill="none" xmlns="http://www.w3.org/2000/svg">
<path d="M8.96191 15H7.7998V10.2969H2.53613V15H1.37402V5.00586H2.53613V9.25781H7.7998V5.00586H8.96191V15ZM18.0059 11.2471C18.0059 12.4684 17.6982 13.4232 17.083 14.1113C16.4678 14.7949 15.6178 15.1367 14.5332 15.1367C13.8633 15.1367 13.2686 14.9795 12.749 14.665C12.2295 14.3506 11.8285 13.8994 11.5459 13.3115C11.2633 12.7236 11.1221 12.0355 11.1221 11.2471C11.1221 10.0257 11.4274 9.07552 12.0381 8.39648C12.6488 7.71289 13.4964 7.37109 14.5811 7.37109C15.6292 7.37109 16.4609 7.71973 17.0762 8.41699C17.696 9.11426 18.0059 10.0576 18.0059 11.2471ZM12.2979 11.2471C12.2979 12.2041 12.4893 12.9333 12.8721 13.4346C13.2549 13.9359 13.8177 14.1865 14.5605 14.1865C15.3034 14.1865 15.8662 13.9382 16.249 13.4414C16.6364 12.9401 16.8301 12.2087 16.8301 11.2471C16.8301 10.2946 16.6364 9.57227 16.249 9.08008C15.8662 8.58333 15.2988 8.33496 14.5469 8.33496C13.804 8.33496 13.2435 8.57878 12.8652 9.06641C12.487 9.55404 12.2979 10.2809 12.2979 11.2471ZM29.5518 15V10.126C29.5518 9.52897 29.4242 9.08236 29.1689 8.78613C28.9137 8.48535 28.5173 8.33496 27.9795 8.33496C27.2731 8.33496 26.7513 8.53776 26.4141 8.94336C26.0768 9.34896 25.9082 9.97331 25.9082 10.8164V15H24.7734V10.126C24.7734 9.52897 24.6458 9.08236 24.3906 8.78613C24.1354 8.48535 23.7367 8.33496 23.1943 8.33496C22.4834 8.33496 21.9616 8.54915 21.6289 8.97754C21.3008 9.40137 21.1367 10.0986 21.1367 11.0693V15H20.002V7.50781H20.9248L21.1094 8.5332H21.1641C21.3783 8.16862 21.679 7.88379 22.0664 7.67871C22.4583 7.47363 22.8958 7.37109 23.3789 7.37109C24.5501 7.37109 25.3158 7.79492 25.6758 8.64258H25.7305C25.9538 8.25065 26.2773 7.94076 26.7012 7.71289C27.125 7.48503 27.6081 7.37109 28.1504 7.37109C28.998 7.37109 29.6315 7.58984 30.0508 8.02734C30.4746 8.46029 30.6865 9.15527 30.6865 10.1123V15H29.5518ZM36.1963 15.1367C35.0889 15.1367 34.2139 14.7995 33.5713 14.125C32.9333 13.4505 32.6143 12.514 32.6143 11.3154C32.6143 10.1077 32.9105 9.14844 33.5029 8.4375C34.0999 7.72656 34.8997 7.37109 35.9023 7.37109C36.8411 7.37109 37.584 7.68099 38.1309 8.30078C38.6777 8.91602 38.9512 9.72949 38.9512 10.7412V11.459H33.79C33.8128 12.3385 34.0339 13.0062 34.4531 13.4619C34.877 13.9176 35.4717 14.1455 36.2373 14.1455C37.0439 14.1455 37.8415 13.9769 38.6299 13.6396V14.6514C38.2288 14.8245 37.8483 14.9476 37.4883 15.0205C37.1328 15.098 36.7021 15.1367 36.1963 15.1367ZM35.8887 8.32129C35.2871 8.32129 34.8063 8.51725 34.4463 8.90918C34.0908 9.30111 33.8812 9.84342 33.8174 10.5361H37.7344C37.7344 9.82064 37.5749 9.27376 37.2559 8.89551C36.9368 8.5127 36.4811 8.32129 35.8887 8.32129ZM53.4229 15H52.2744L50.2578 8.30762C50.1621 8.01139 50.055 7.6377 49.9365 7.18652C49.818 6.73535 49.7565 6.46419 49.752 6.37305C49.6517 6.97461 49.4922 7.63314 49.2734 8.34863L47.3184 15H46.1699L43.5107 5.00586H44.7412L46.3203 11.1787C46.5391 12.0446 46.6986 12.8285 46.7988 13.5303C46.9219 12.6963 47.1042 11.8805 47.3457 11.083L49.1367 5.00586H50.3672L52.2471 11.1377C52.4658 11.8441 52.6504 12.6416 52.8008 13.5303C52.8874 12.8831 53.0514 12.0947 53.293 11.165L54.8652 5.00586H56.0957L53.4229 15ZM63.957 11.2471C63.957 12.4684 63.6494 13.4232 63.0342 14.1113C62.4189 14.7949 61.569 15.1367 60.4844 15.1367C59.8145 15.1367 59.2197 14.9795 58.7002 14.665C58.1807 14.3506 57.7796 13.8994 57.4971 13.3115C57.2145 12.7236 57.0732 12.0355 57.0732 11.2471C57.0732 10.0257 57.3786 9.07552 57.9893 8.39648C58.5999 7.71289 59.4476 7.37109 60.5322 7.37109C61.5804 7.37109 62.4121 7.71973 63.0273 8.41699C63.6471 9.11426 63.957 10.0576 63.957 11.2471ZM58.249 11.2471C58.249 12.2041 58.4404 12.9333 58.8232 13.4346C59.2061 13.9359 59.7689 14.1865 60.5117 14.1865C61.2546 14.1865 61.8174 13.9382 62.2002 13.4414C62.5876 12.9401 62.7812 12.2087 62.7812 11.2471C62.7812 10.2946 62.5876 9.57227 62.2002 9.08008C61.8174 8.58333 61.25 8.33496 60.498 8.33496C59.7552 8.33496 59.1947 8.57878 58.8164 9.06641C58.4382 9.55404 58.249 10.2809 58.249 11.2471ZM69.3711 7.37109C69.7038 7.37109 70.0023 7.39844 70.2666 7.45312L70.1094 8.50586C69.7995 8.4375 69.526 8.40332 69.2891 8.40332C68.6829 8.40332 68.1634 8.64941 67.7305 9.1416C67.3021 9.63379 67.0879 10.2467 67.0879 10.9805V15H65.9531V7.50781H66.8896L67.0195 8.89551H67.0742C67.3522 8.40788 67.6872 8.0319 68.0791 7.76758C68.471 7.50326 68.9017 7.37109 69.3711 7.37109ZM72.7891 11.165C72.985 10.887 73.2835 10.5225 73.6846 10.0713L76.1045 7.50781H77.4512L74.416 10.7002L77.6631 15H76.2891L73.6436 11.459L72.7891 12.1973V15H71.668V4.36328H72.7891V10.0029C72.7891 10.2536 72.7708 10.641 72.7344 11.165H72.7891Z" fill="#030A16"/>
<path d="M10.8333 43.6667C5.72645 43.6667 3.17301 43.6667 1.58651 42.0801C-1.29143e-07 40.4937 0 37.9402 0 32.8333C0 27.7265 -1.29143e-07 25.173 1.58651 23.5865C3.17301 22 5.72645 22 10.8333 22C15.9402 22 18.4937 22 20.0801 23.5865C21.6667 25.173 21.6667 27.7265 21.6667 32.8333C21.6667 37.9402 21.6667 40.4937 20.0801 42.0801C18.4937 43.6667 15.9402 43.6667 10.8333 43.6667Z" fill="#275EFE"/>
<path d="M15.1996 29.5505C15.5169 29.8678 15.5169 30.3822 15.1996 30.6995L9.7829 36.1162C9.4656 36.4335 8.95123 36.4335 8.63389 36.1162L6.46722 33.9495C6.14992 33.6322 6.14992 33.1178 6.46722 32.8005C6.78452 32.4832 7.29897 32.4832 7.61627 32.8005L9.20841 34.3926L14.0506 29.5505C14.3679 29.2332 14.8823 29.2332 15.1996 29.5505Z" fill="white"/>
<path d="M32.3502 33.1042C32.3502 34.6361 31.9334 35.8083 31.0997 36.6208C30.2703 37.4291 29.0748 37.8333 27.5133 37.8333H24.9425V28.553H27.7863C29.2293 28.553 30.3507 28.9529 31.1505 29.7527C31.9503 30.5525 32.3502 31.6697 32.3502 33.1042ZM31.2076 33.1423C31.2076 31.932 30.903 31.0201 30.2936 30.4065C29.6884 29.7929 28.7871 29.4861 27.5895 29.4861H26.0216V36.9001H27.3356C28.622 36.9001 29.589 36.5849 30.2365 35.9543C30.8839 35.3196 31.2076 34.3822 31.2076 33.1423ZM40.2721 34.3484C40.2721 35.4825 39.9865 36.3691 39.4152 37.0081C38.8439 37.6428 38.0546 37.9602 37.0475 37.9602C36.4254 37.9602 35.8732 37.8142 35.3907 37.5222C34.9083 37.2302 34.5359 36.8113 34.2736 36.2654C34.0112 35.7195 33.88 35.0805 33.88 34.3484C33.88 33.2143 34.1635 32.3319 34.7306 31.7014C35.2976 31.0667 36.0848 30.7493 37.0919 30.7493C38.0652 30.7493 38.8375 31.073 39.4088 31.7205C39.9843 32.3679 40.2721 33.2439 40.2721 34.3484ZM34.9718 34.3484C34.9718 35.2371 35.1495 35.9141 35.505 36.3796C35.8605 36.8451 36.3831 37.0779 37.0729 37.0779C37.7627 37.0779 38.2853 36.8472 38.6407 36.386C39.0004 35.9205 39.1803 35.2413 39.1803 34.3484C39.1803 33.4639 39.0004 32.7932 38.6407 32.3362C38.2853 31.8749 37.7584 31.6443 37.0602 31.6443C36.3704 31.6443 35.8499 31.8707 35.4987 32.3235C35.1474 32.7763 34.9718 33.4513 34.9718 34.3484ZM46.8864 37.8333V33.3328C46.8864 32.7657 46.7573 32.3425 46.4991 32.0632C46.241 31.7839 45.8369 31.6443 45.2867 31.6443C44.5589 31.6443 44.0257 31.8411 43.6871 32.2346C43.3486 32.6282 43.1793 33.2778 43.1793 34.1833V37.8333H42.1256V30.8762H42.9825L43.1539 31.8284H43.2047C43.4205 31.4856 43.7231 31.2211 44.1124 31.0349C44.5017 30.8445 44.9355 30.7493 45.4137 30.7493C46.2516 30.7493 46.8821 30.9524 47.3053 31.3586C47.7285 31.7607 47.9401 32.406 47.9401 33.2947V37.8333H46.8864ZM53.0499 37.9602C52.0216 37.9602 51.2091 37.6471 50.6124 37.0208C50.02 36.3944 49.7238 35.5248 49.7238 34.4119C49.7238 33.2904 49.9988 32.3997 50.549 31.7395C51.1033 31.0793 51.846 30.7493 52.777 30.7493C53.6487 30.7493 54.3385 31.037 54.8463 31.6125C55.3541 32.1838 55.608 32.9392 55.608 33.8787V34.5452H50.8156C50.8367 35.3619 51.042 35.9819 51.4313 36.405C51.8248 36.8282 52.3771 37.0398 53.088 37.0398C53.837 37.0398 54.5776 36.8832 55.3097 36.5701V37.5095C54.9373 37.6703 54.5839 37.7846 54.2496 37.8523C53.9196 37.9242 53.5197 37.9602 53.0499 37.9602ZM52.7643 31.6316C52.2057 31.6316 51.7592 31.8136 51.4249 32.1775C51.0948 32.5414 50.9002 33.045 50.8409 33.6882H54.4781C54.4781 33.0238 54.33 32.516 54.0338 32.1648C53.7376 31.8093 53.3144 31.6316 52.7643 31.6316Z" fill="#444444"/>
<path d="M70.9401 41.7266L70.9401 41.7266C70.2552 41.0417 69.8847 40.1299 69.6939 38.7103C69.5011 37.2763 69.5 35.4009 69.5 32.8333C69.5 30.2658 69.5011 28.3904 69.6939 26.9564C69.8847 25.5368 70.2552 24.6249 70.9401 23.9401L70.9401 23.9401C71.6249 23.2552 72.5368 22.8847 73.9564 22.6939C75.3904 22.5011 77.2658 22.5 79.8333 22.5C82.4009 22.5 84.2763 22.5011 85.7103 22.6939C87.1299 22.8847 88.0417 23.2552 88.7266 23.9401L88.7266 23.9401C89.4115 24.6249 89.782 25.5368 89.9728 26.9564C90.1656 28.3904 90.1667 30.2658 90.1667 32.8333C90.1667 35.4009 90.1656 37.2763 89.9728 38.7103C89.782 40.1299 89.4115 41.0417 88.7266 41.7266L88.7266 41.7266C88.0417 42.4115 87.1299 42.782 85.7103 42.9728C84.2763 43.1656 82.4009 43.1667 79.8333 43.1667C77.2658 43.1667 75.3904 43.1656 73.9564 42.9728C72.5368 42.782 71.6249 42.4115 70.9401 41.7266Z" stroke="black" stroke-opacity="0.48"/>
<path d="M101.192 37.8333H99.9601L94.8883 30.0447H94.8375C94.9052 30.9587 94.9391 31.7966 94.9391 32.5583V37.8333H93.9425V28.553H95.1613L100.22 36.3098H100.271C100.263 36.1956 100.244 35.8295 100.214 35.2117C100.184 34.5896 100.174 34.1453 100.182 33.8787V28.553H101.192V37.8333ZM109.589 34.3484C109.589 35.4825 109.304 36.3691 108.733 37.0081C108.161 37.6428 107.372 37.9602 106.365 37.9602C105.743 37.9602 105.191 37.8142 104.708 37.5222C104.226 37.2302 103.853 36.8113 103.591 36.2654C103.329 35.7195 103.197 35.0805 103.197 34.3484C103.197 33.2143 103.481 32.3319 104.048 31.7014C104.615 31.0667 105.402 30.7493 106.409 30.7493C107.383 30.7493 108.155 31.073 108.726 31.7205C109.302 32.3679 109.589 33.2439 109.589 34.3484ZM104.289 34.3484C104.289 35.2371 104.467 35.9141 104.822 36.3796C105.178 36.8451 105.7 37.0779 106.39 37.0779C107.08 37.0779 107.603 36.8472 107.958 36.386C108.318 35.9205 108.498 35.2413 108.498 34.3484C108.498 33.4639 108.318 32.7932 107.958 32.3362C107.603 31.8749 107.076 31.6443 106.378 31.6443C105.688 31.6443 105.167 31.8707 104.816 32.3235C104.465 32.7763 104.289 33.4513 104.289 34.3484ZM113.69 37.0906C113.876 37.0906 114.056 37.0779 114.23 37.0525C114.403 37.0229 114.541 36.9932 114.642 36.9636V37.7698C114.528 37.8248 114.359 37.8692 114.134 37.9031C113.914 37.9412 113.715 37.9602 113.538 37.9602C112.192 37.9602 111.519 37.2514 111.519 35.8337V31.6951H110.523V31.1873L111.519 30.7493L111.964 29.2639H112.573V30.8762H114.591V31.6951H112.573V35.7893C112.573 36.2083 112.672 36.5299 112.871 36.7542C113.07 36.9784 113.343 37.0906 113.69 37.0906ZM126.982 33.1042C126.982 34.6361 126.565 35.8083 125.732 36.6208C124.902 37.4291 123.707 37.8333 122.145 37.8333H119.574V28.553H122.418C123.861 28.553 124.983 28.9529 125.782 29.7527C126.582 30.5525 126.982 31.6697 126.982 33.1042ZM125.839 33.1423C125.839 31.932 125.535 31.0201 124.925 30.4065C124.32 29.7929 123.419 29.4861 122.221 29.4861H120.653V36.9001H121.967C123.254 36.9001 124.221 36.5849 124.868 35.9543C125.516 35.3196 125.839 34.3822 125.839 33.1423ZM134.904 34.3484C134.904 35.4825 134.618 36.3691 134.047 37.0081C133.476 37.6428 132.686 37.9602 131.679 37.9602C131.057 37.9602 130.505 37.8142 130.023 37.5222C129.54 37.2302 129.168 36.8113 128.905 36.2654C128.643 35.7195 128.512 35.0805 128.512 34.3484C128.512 33.2143 128.795 32.3319 129.362 31.7014C129.929 31.0667 130.717 30.7493 131.724 30.7493C132.697 30.7493 133.469 31.073 134.041 31.7205C134.616 32.3679 134.904 33.2439 134.904 34.3484ZM129.604 34.3484C129.604 35.2371 129.781 35.9141 130.137 36.3796C130.492 36.8451 131.015 37.0779 131.705 37.0779C132.394 37.0779 132.917 36.8472 133.273 36.386C133.632 35.9205 133.812 35.2413 133.812 34.3484C133.812 33.4639 133.632 32.7932 133.273 32.3362C132.917 31.8749 132.39 31.6443 131.692 31.6443C131.002 31.6443 130.482 31.8707 130.13 32.3235C129.779 32.7763 129.604 33.4513 129.604 34.3484ZM141.518 37.8333V33.3328C141.518 32.7657 141.389 32.3425 141.131 32.0632C140.873 31.7839 140.469 31.6443 139.919 31.6443C139.191 31.6443 138.658 31.8411 138.319 32.2346C137.98 32.6282 137.811 33.2778 137.811 34.1833V37.8333H136.757V30.8762H137.614L137.786 31.8284H137.837C138.052 31.4856 138.355 31.2211 138.744 31.0349C139.134 30.8445 139.567 30.7493 140.046 30.7493C140.883 30.7493 141.514 30.9524 141.937 31.3586C142.36 31.7607 142.572 32.406 142.572 33.2947V37.8333H141.518ZM147.682 37.9602C146.653 37.9602 145.841 37.6471 145.244 37.0208C144.652 36.3944 144.356 35.5248 144.356 34.4119C144.356 33.2904 144.631 32.3997 145.181 31.7395C145.735 31.0793 146.478 30.7493 147.409 30.7493C148.281 30.7493 148.97 31.037 149.478 31.6125C149.986 32.1838 150.24 32.9392 150.24 33.8787V34.5452H145.447C145.469 35.3619 145.674 35.9819 146.063 36.405C146.457 36.8282 147.009 37.0398 147.72 37.0398C148.469 37.0398 149.209 36.8832 149.942 36.5701V37.5095C149.569 37.6703 149.216 37.7846 148.881 37.8523C148.551 37.9242 148.151 37.9602 147.682 37.9602ZM147.396 31.6316C146.838 31.6316 146.391 31.8136 146.057 32.1775C145.727 32.5414 145.532 33.045 145.473 33.6882H149.11C149.11 33.0238 148.962 32.516 148.666 32.1648C148.369 31.8093 147.946 31.6316 147.396 31.6316Z" fill="#444444"/>
</svg>
